<svg width="160" height="160" viewBox="0 0 160 160" fill="none" xmlns="http://www.w3.org/2000/svg">
  <rect width="160" height="160" rx="32" fill="#0f766e"/>
  <path d="M80 22L124 39V72C124 101 106 126 80 138C54 126 36 101 36 72V39L80 22Z" fill="#ecfeff"/>
  <path d="M56 88C66 72 79 72 90 84C101 96 111 96 122 82V103C112 116 95 118 82 104C70 91 62 94 56 106V88Z" fill="#0ea5e9"/>
  <path d="M51 63C65 55 77 58 88 72C98 84 111 85 124 74V88C109 99 92 96 80 82C70 71 62 70 51 77V63Z" fill="#16a34a"/>
</svg>
